<svg width="110" height="110" viewBox="0 0 110 110" fill="none" xmlns="http://www.w3.org/2000/svg">
<path d="M35.5002 82.0833L55.0002 62.5833L74.5002 82.0833L82.0835 74.4999L62.5835 54.9999L82.0835 35.4999L74.5002 27.9166L55.0002 47.4166L35.5002 27.9166L27.9168 35.4999L47.4168 54.9999L27.9168 74.4999L35.5002 82.0833ZM55.0002 109.167C47.5071 109.167 40.4655 107.744 33.8752 104.898C27.2849 102.053 21.5523 98.1942 16.6773 93.3228C11.8023 88.4515 7.94378 82.7188 5.10184 76.1249C2.25989 69.531 0.837114 62.4894 0.833503 54.9999C0.829892 47.5105 2.25267 40.4688 5.10184 33.8749C7.951 27.281 11.8095 21.5484 16.6773 16.677C21.545 11.8056 27.2777 7.94714 33.8752 5.10159C40.4727 2.25603 47.5143 0.833252 55.0002 0.833252C62.486 0.833252 69.5277 2.25603 76.1252 5.10159C82.7227 7.94714 88.4553 11.8056 93.3231 16.677C98.1909 21.5484 102.051 27.281 104.904 33.8749C107.757 40.4688 109.178 47.5105 109.167 54.9999C109.156 62.4894 107.733 69.531 104.899 76.1249C102.064 82.7188 98.2053 88.4515 93.3231 93.3228C88.4409 98.1942 82.7082 102.055 76.1252 104.904C69.5421 107.753 62.5004 109.174 55.0002 109.167Z" fill="#EF4444"/>
</svg>
