<svg width="20" height="20" viewBox="0 0 20 20" fill="none" xmlns="http://www.w3.org/2000/svg">
<g clip-path="url(#clip0_963_10)">
<path fill-rule="evenodd" clip-rule="evenodd" d="M7.21286 0.394276C5.28001 0.957311 3.56174 2.08983 2.28221 3.64408C1.00267 5.19832 0.22129 7.10213 0.039999 9.10713H4.61143C4.8779 6.05606 5.76252 3.09113 7.21143 0.392848L7.21286 0.394276ZM4.61143 10.8928H0.039999C0.220913 12.8979 1.00196 14.8019 2.28124 16.3564C3.56053 17.9109 5.27864 19.0438 7.21143 19.6071C5.76252 16.9088 4.8779 13.9439 4.61143 10.8928ZM9.50286 19.9886C7.77083 17.2416 6.70892 14.1258 6.40286 10.8928H13.5957C13.2896 14.1258 12.2277 17.2416 10.4957 19.9886C10.165 20.005 9.83361 20.005 9.50286 19.9886ZM12.7886 19.6057C14.7211 19.0424 16.4391 17.9098 17.7184 16.3556C18.9976 14.8013 19.7788 12.8977 19.96 10.8928H15.3886C15.1221 13.9439 14.2375 16.9088 12.7886 19.6071V19.6057ZM15.3886 9.10713H19.96C19.7791 7.10206 18.998 5.19806 17.7188 3.64356C16.4395 2.08905 14.7214 0.956216 12.7886 0.392848C14.2375 3.09113 15.1221 6.05606 15.3886 9.10713ZM9.50286 0.0114192C9.83408 -0.00506778 10.1659 -0.00506778 10.4971 0.0114192C12.2287 2.75854 13.2901 5.87427 13.5957 9.10713H6.40429C6.71429 5.85428 7.77857 2.7357 9.50286 0.0114192Z" fill="#B0B0B0"/>
</g>
<defs>
<clipPath id="clip0_963_10">
<rect width="20" height="20" fill="white"/>
</clipPath>
</defs>
</svg>
