<svg width="20" height="17" viewBox="0 0 20 17" fill="none" xmlns="http://www.w3.org/2000/svg">
<path d="M2.5 16.5C2.04167 16.5 1.64945 16.3369 1.32333 16.0108C0.997223 15.6847 0.83389 15.2922 0.833334 14.8333V4.83334C0.833334 4.59723 0.913334 4.39945 1.07333 4.24001C1.23333 4.08056 1.43111 4.00056 1.66667 4.00001C1.90222 3.99945 2.10028 4.07945 2.26083 4.24001C2.42139 4.40056 2.50111 4.59834 2.5 4.83334V14.8333H15.8333C16.0694 14.8333 16.2675 14.9133 16.4275 15.0733C16.5875 15.2333 16.6672 15.4311 16.6667 15.6667C16.6661 15.9022 16.5861 16.1003 16.4267 16.2608C16.2672 16.4214 16.0694 16.5011 15.8333 16.5H2.5ZM5.83333 13.1667C5.375 13.1667 4.98278 13.0036 4.65667 12.6775C4.33056 12.3514 4.16722 11.9589 4.16667 11.5V2.33334C4.16667 1.87501 4.33 1.48278 4.65667 1.15667C4.98333 0.830561 5.37556 0.667227 5.83333 0.666672H9.3125C9.53472 0.666672 9.74667 0.708338 9.94833 0.791672C10.15 0.875005 10.3269 0.993061 10.4792 1.14584L11.6667 2.33334H17.5C17.9583 2.33334 18.3508 2.49667 18.6775 2.82334C19.0042 3.15 19.1672 3.54223 19.1667 4.00001V11.5C19.1667 11.9583 19.0036 12.3508 18.6775 12.6775C18.3514 13.0042 17.9589 13.1672 17.5 13.1667H5.83333ZM11.0417 8.58334L10.0833 7.33334C10 7.22223 9.88889 7.16667 9.75 7.16667C9.61111 7.16667 9.5 7.22223 9.41667 7.33334L8.02083 9.16667C7.90972 9.30556 7.89222 9.45139 7.96833 9.60417C8.04445 9.75695 8.17306 9.83334 8.35417 9.83334H14.9792C15.1597 9.83334 15.2881 9.75695 15.3642 9.60417C15.4403 9.45139 15.4231 9.30556 15.3125 9.16667L13.2917 6.52084C13.2083 6.40973 13.0972 6.35417 12.9583 6.35417C12.8194 6.35417 12.7083 6.40973 12.625 6.52084L11.0417 8.58334Z" fill="#B0B0B0"/>
</svg>
