<svg width="20" height="20" viewBox="0 0 20 20" fill="none" xmlns="http://www.w3.org/2000/svg">
<path d="M16.1154 3.07693H3.88462C3.44077 3.07693 3.07692 3.44309 3.07692 3.89155V13.5346C3.07692 13.9831 3.44077 14.35 3.88462 14.35H7.86769V16.7192C7.86769 16.8823 8.04462 16.9808 8.18308 16.8908L12.1323 14.3492H16.1154C16.5592 14.3492 16.9231 13.9831 16.9231 13.5346V3.89232C16.9231 3.44309 16.5592 3.07693 16.1154 3.07693ZM6.86 10.7692C6.47385 10.7692 6.15385 10.4331 6.15385 10.0085V9.99155C6.15385 9.56694 6.47385 9.23078 6.86 9.23078H13.1323C13.5262 9.23078 13.8462 9.5754 13.8462 10C13.8462 10.4246 13.5262 10.7692 13.1323 10.7692H6.86ZM6.86 7.69232C6.47385 7.69232 6.15385 7.35617 6.15385 6.93155V6.9154C6.15385 6.49001 6.47385 6.15386 6.86 6.15386H13.1323C13.5262 6.15386 13.8462 6.49847 13.8462 6.92309C13.8462 7.3477 13.5262 7.69232 13.1323 7.69232H6.86Z" fill="#B0B0B0"/>
</svg>
