<svg width="20" height="20" viewBox="0 0 20 20" fill="none" xmlns="http://www.w3.org/2000/svg">
<path d="M13.3333 14.1667V15.8333H1.66667V14.1667C1.66667 14.1667 1.66667 10.8333 7.5 10.8333C13.3333 10.8333 13.3333 14.1667 13.3333 14.1667ZM10.4167 6.25001C10.4167 5.67315 10.2456 5.10924 9.92512 4.6296C9.60463 4.14995 9.14911 3.77612 8.61616 3.55536C8.08321 3.33461 7.49676 3.27685 6.93099 3.38939C6.36521 3.50193 5.84551 3.77971 5.4376 4.18762C5.0297 4.59552 4.75192 5.11522 4.63938 5.681C4.52684 6.24677 4.5846 6.83322 4.80535 7.36617C5.02611 7.89912 5.39994 8.35464 5.87959 8.67513C6.35923 8.99562 6.92314 9.16668 7.5 9.16668C8.27355 9.16668 9.01541 8.85939 9.56239 8.3124C10.1094 7.76542 10.4167 7.02356 10.4167 6.25001ZM13.2833 10.8333C13.7956 11.2298 14.2148 11.7337 14.5114 12.3096C14.808 12.8855 14.9748 13.5194 15 14.1667V15.8333H18.3333V14.1667C18.3333 14.1667 18.3333 11.1417 13.2833 10.8333ZM12.5 3.33334C11.9265 3.33068 11.3657 3.50212 10.8917 3.82501C11.3979 4.53229 11.67 5.38025 11.67 6.25001C11.67 7.11977 11.3979 7.96773 10.8917 8.67501C11.3657 8.9979 11.9265 9.16934 12.5 9.16668C13.2735 9.16668 14.0154 8.85939 14.5624 8.3124C15.1094 7.76542 15.4167 7.02356 15.4167 6.25001C15.4167 5.47646 15.1094 4.7346 14.5624 4.18762C14.0154 3.64063 13.2735 3.33334 12.5 3.33334Z" fill="#B0B0B0"/>
</svg>
